<svg xmlns="http://www.w3.org/2000/svg" width="1200" height="630" viewBox="0 0 1200 630" fill="none">
  <defs>
    <linearGradient id="bg" x1="0" y1="0" x2="1200" y2="630" gradientUnits="userSpaceOnUse">
      <stop stop-color="#0F1115"/>
      <stop offset="1" stop-color="#171A20"/>
    </linearGradient>
    <linearGradient id="pill" x1="0" y1="0" x2="400" y2="120" gradientUnits="userSpaceOnUse">
      <stop stop-color="#2A2F38"/>
      <stop offset="1" stop-color="#20242B"/>
    </linearGradient>
    <linearGradient id="accent" x1="0" y1="0" x2="180" y2="0" gradientUnits="userSpaceOnUse">
      <stop stop-color="#C4956A"/>
      <stop offset="1" stop-color="#E0B792"/>
    </linearGradient>
  </defs>

  <rect width="1200" height="630" rx="40" fill="url(#bg)"/>
  <rect x="36" y="36" width="1128" height="558" rx="34" stroke="#2C3038"/>

  <rect x="88" y="88" width="180" height="34" rx="17" fill="#262B33"/>
  <rect x="102" y="99" width="112" height="12" rx="6" fill="url(#accent)"/>

  <text x="88" y="188" fill="#F3F4F6" font-family="Inter, Arial, sans-serif" font-size="58" font-weight="700">Big Text</text>
  <text x="88" y="230" fill="#B6BBC5" font-family="Inter, Arial, sans-serif" font-size="24">Section headline with optional highlighted words</text>

  <rect x="88" y="288" width="480" height="238" rx="34" fill="url(#pill)" stroke="#333844"/>
  <rect x="112" y="316" width="220" height="20" rx="10" fill="#D0D3DA" fill-opacity="0.95"/>
  <rect x="112" y="352" width="420" height="14" rx="7" fill="#9CA3AF" fill-opacity="0.72"/>
  <rect x="112" y="376" width="390" height="14" rx="7" fill="#9CA3AF" fill-opacity="0.72"/>
  <rect x="112" y="400" width="288" height="14" rx="7" fill="#9CA3AF" fill-opacity="0.72"/>
  <rect x="112" y="448" width="182" height="46" rx="23" fill="url(#accent)"/>

  <rect x="610" y="288" width="502" height="114" rx="30" fill="url(#pill)" stroke="#333844"/>
  <rect x="634" y="318" width="220" height="16" rx="8" fill="#D0D3DA" fill-opacity="0.95"/>
  <rect x="634" y="347" width="420" height="12" rx="6" fill="#9CA3AF" fill-opacity="0.72"/>

  <rect x="610" y="412" width="239" height="114" rx="30" fill="url(#pill)" stroke="#333844"/>
  <rect x="873" y="412" width="239" height="114" rx="30" fill="url(#pill)" stroke="#333844"/>

  <rect x="634" y="440" width="160" height="14" rx="7" fill="#D0D3DA" fill-opacity="0.95"/>
  <rect x="897" y="440" width="160" height="14" rx="7" fill="#D0D3DA" fill-opacity="0.95"/>
  <rect x="634" y="466" width="120" height="10" rx="5" fill="#9CA3AF" fill-opacity="0.72"/>
  <rect x="897" y="466" width="120" height="10" rx="5" fill="#9CA3AF" fill-opacity="0.72"/>
</svg>
