<svg width="320" height="180" viewBox="0 0 320 180" fill="none" xmlns="http://www.w3.org/2000/svg">
  <rect width="320" height="180" rx="16" fill="#111111"/>
  <rect x="16" y="18" width="120" height="12" rx="6" fill="#C4956A"/>
  <rect x="16" y="44" width="288" height="120" rx="12" fill="#1D1D1D" stroke="#2F2F2F"/>
  <rect x="28" y="56" width="80" height="40" rx="8" fill="#2A2A2A" stroke="#3B3B3B"/>
  <rect x="120" y="56" width="80" height="40" rx="8" fill="#2A2A2A" stroke="#3B3B3B"/>
  <rect x="212" y="56" width="80" height="40" rx="8" fill="#2A2A2A" stroke="#3B3B3B"/>
  <rect x="28" y="108" width="80" height="40" rx="8" fill="#2A2A2A" stroke="#3B3B3B"/>
  <rect x="120" y="108" width="80" height="40" rx="8" fill="#2A2A2A" stroke="#3B3B3B"/>
  <rect x="212" y="108" width="80" height="40" rx="8" fill="#2A2A2A" stroke="#3B3B3B"/>
  <rect x="40" y="71" width="56" height="8" rx="4" fill="#8A8A8A"/>
  <rect x="132" y="71" width="56" height="8" rx="4" fill="#8A8A8A"/>
  <rect x="224" y="71" width="56" height="8" rx="4" fill="#8A8A8A"/>
  <rect x="40" y="123" width="56" height="8" rx="4" fill="#8A8A8A"/>
  <rect x="132" y="123" width="56" height="8" rx="4" fill="#8A8A8A"/>
  <rect x="224" y="123" width="56" height="8" rx="4" fill="#8A8A8A"/>
</svg>
